<svg width="500" height="275" viewBox="0 0 500 275" fill="none" xmlns="http://www.w3.org/2000/svg">
<rect x="2.5" y="2.5" width="495" height="270" rx="37.5" fill="white"/>
<rect x="2.5" y="2.5" width="495" height="270" rx="37.5" stroke="#008ED6" stroke-width="5"/>
<path d="M52.4624 43.0522C46.3892 52.2768 27.2704 135.961 24.7705 146.979C24.6287 147.604 25.1094 148.174 25.7504 148.174H56.2223C56.6864 148.174 57.0895 147.855 57.1958 147.403L72.5739 82.0013C72.7949 81.0611 74.0835 80.9224 74.4678 81.8085C79.4435 93.2793 98.6351 136.794 107.087 145.352C111.373 149.692 115.531 151.083 121.393 150.996C127.014 150.913 130.956 149.532 135.049 145.352C144.586 135.614 162.351 92.2708 167.049 80.5518C167.413 79.6433 168.728 79.7673 168.956 80.7192L184.938 147.407C185.045 147.857 185.448 148.174 185.91 148.174H217C217.652 148.174 218.134 147.576 217.973 146.944C215.012 135.343 191.98 45.4181 187.723 38.8191C184.14 33.2673 179.662 31.1773 173.416 31.0585C166.943 30.9352 162.575 33.3968 158.46 38.8191C150.338 49.5191 127.206 97.2792 122.31 107.459C121.941 108.226 120.87 108.211 120.518 107.436C116.025 97.549 95.3722 52.6035 84.9769 38.8191C80.5846 32.9949 75.642 30.5829 68.7197 31.0585C61.0574 31.5849 56.925 36.2741 52.4624 43.0522Z" fill="#008ED6"/>
<path d="M207.231 34.8805V83.1338C207.231 83.222 207.243 83.3098 207.266 83.3949L224.589 147.435C224.707 147.871 225.103 148.174 225.554 148.174H308.805C309.132 148.174 309.438 148.014 309.625 147.746L328.39 120.82C328.852 120.157 328.378 119.248 327.57 119.248H241.396C240.844 119.248 240.396 118.8 240.396 118.248V104.727C240.396 104.174 240.844 103.727 241.396 103.727H304.903C305.23 103.727 305.536 103.567 305.723 103.299L322.536 79.1946C322.999 78.5317 322.524 77.6225 321.716 77.6225H241.396C240.844 77.6225 240.396 77.1748 240.396 76.6225V64.5122C240.396 63.9599 240.844 63.5122 241.396 63.5122H453.812C454.143 63.5122 454.452 63.3484 454.639 63.0747L473.437 35.443C473.889 34.7791 473.413 33.8805 472.61 33.8805H208.231C207.679 33.8805 207.231 34.3282 207.231 34.8805Z" fill="#008ED6"/>
<path d="M372.803 77.6225H338.808C338.31 77.6225 337.89 77.9808 337.829 78.4754C337.4 81.9412 335.969 95.1907 337.939 103.727C340.091 113.05 342.692 118.196 348.344 125.598C352.825 131.466 355.984 134.364 362 138.297C367.615 141.968 377.407 145.085 378.205 145.336C378.244 145.348 378.277 145.356 378.317 145.363L393.776 148.158C393.835 148.169 393.894 148.174 393.954 148.174H453.819C454.146 148.174 454.452 148.014 454.639 147.746L473.379 120.857C473.846 120.187 473.369 119.269 472.552 119.283C460.751 119.493 399.154 120.523 393.864 119.248C388.012 117.837 384.11 115.72 382.159 114.309L382.105 114.271C380.11 112.828 374.732 108.939 372.405 103.727C370.384 99.202 370.177 96.0461 370.454 91.0273C370.678 86.9719 372.707 81.5775 373.747 79.0469C374.023 78.3744 373.53 77.6225 372.803 77.6225Z" fill="#008ED6"/>
<rect width="499" height="99" transform="translate(0 176)" fill="#008ED6"/>
<path d="M66.7148 225.727C69.4688 226.312 71.5293 227.25 72.8965 228.539C74.791 230.336 75.7383 232.533 75.7383 235.131C75.7383 237.104 75.1133 238.998 73.8633 240.814C72.6133 242.611 70.8945 243.93 68.707 244.77C66.5391 245.59 63.2188 246 58.7461 246H39.9961V244.916H41.4902C43.1504 244.916 44.3418 244.389 45.0645 243.334C45.5137 242.65 45.7383 241.195 45.7383 238.969V213.305C45.7383 210.844 45.4551 209.291 44.8887 208.646C44.127 207.787 42.9941 207.357 41.4902 207.357H39.9961V206.273H57.1641C60.3672 206.273 62.9355 206.508 64.8691 206.977C67.7988 207.68 70.0352 208.93 71.5781 210.727C73.1211 212.504 73.8926 214.555 73.8926 216.879C73.8926 218.871 73.2871 220.658 72.0762 222.24C70.8652 223.803 69.0781 224.965 66.7148 225.727ZM51.3633 224.145C52.0859 224.281 52.9062 224.389 53.8242 224.467C54.7617 224.525 55.7871 224.555 56.9004 224.555C59.752 224.555 61.8906 224.252 63.3164 223.646C64.7617 223.021 65.8652 222.074 66.627 220.805C67.3887 219.535 67.7695 218.148 67.7695 216.645C67.7695 214.32 66.8223 212.338 64.9277 210.697C63.0332 209.057 60.2695 208.236 56.6367 208.236C54.6836 208.236 52.9258 208.451 51.3633 208.881V224.145ZM51.3633 243.129C53.6289 243.656 55.8652 243.92 58.0723 243.92C61.6074 243.92 64.3027 243.129 66.1582 241.547C68.0137 239.945 68.9414 237.973 68.9414 235.629C68.9414 234.086 68.5215 232.602 67.6816 231.176C66.8418 229.75 65.4746 228.627 63.5801 227.807C61.6855 226.986 59.3418 226.576 56.5488 226.576C55.3379 226.576 54.3027 226.596 53.4434 226.635C52.584 226.674 51.8906 226.742 51.3633 226.84V243.129ZM85.4062 229.271C85.3867 233.256 86.3535 236.381 88.3066 238.646C90.2598 240.912 92.5547 242.045 95.1914 242.045C96.9492 242.045 98.4727 241.566 99.7617 240.609C101.07 239.633 102.164 237.973 103.043 235.629L103.951 236.215C103.541 238.891 102.35 241.332 100.377 243.539C98.4043 245.727 95.9336 246.82 92.9648 246.82C89.7422 246.82 86.9785 245.57 84.6738 243.07C82.3887 240.551 81.2461 237.172 81.2461 232.934C81.2461 228.344 82.418 224.77 84.7617 222.211C87.125 219.633 90.084 218.344 93.6387 218.344C96.6465 218.344 99.1172 219.34 101.051 221.332C102.984 223.305 103.951 225.951 103.951 229.271H85.4062ZM85.4062 227.572H97.8281C97.7305 225.854 97.5254 224.643 97.2129 223.939C96.7246 222.846 95.9922 221.986 95.0156 221.361C94.0586 220.736 93.0527 220.424 91.998 220.424C90.377 220.424 88.9219 221.059 87.6328 222.328C86.3633 223.578 85.6211 225.326 85.4062 227.572ZM130.348 235.805C129.625 239.34 128.209 242.064 126.1 243.979C123.99 245.873 121.656 246.82 119.098 246.82C116.051 246.82 113.395 245.541 111.129 242.982C108.863 240.424 107.73 236.967 107.73 232.611C107.73 228.393 108.98 224.965 111.48 222.328C114 219.691 117.018 218.373 120.533 218.373C123.17 218.373 125.338 219.076 127.037 220.482C128.736 221.869 129.586 223.314 129.586 224.818C129.586 225.561 129.342 226.166 128.854 226.635C128.385 227.084 127.721 227.309 126.861 227.309C125.709 227.309 124.84 226.938 124.254 226.195C123.922 225.785 123.697 225.004 123.58 223.852C123.482 222.699 123.092 221.82 122.408 221.215C121.725 220.629 120.777 220.336 119.566 220.336C117.613 220.336 116.041 221.059 114.85 222.504C113.268 224.418 112.477 226.947 112.477 230.092C112.477 233.295 113.258 236.127 114.82 238.588C116.402 241.029 118.531 242.25 121.207 242.25C123.121 242.25 124.84 241.596 126.363 240.287C127.438 239.389 128.482 237.758 129.498 235.395L130.348 235.805ZM149.42 242.133C146.666 244.262 144.938 245.492 144.234 245.824C143.18 246.312 142.057 246.557 140.865 246.557C139.01 246.557 137.477 245.922 136.266 244.652C135.074 243.383 134.479 241.713 134.479 239.643C134.479 238.334 134.771 237.201 135.357 236.244C136.158 234.916 137.545 233.666 139.518 232.494C141.51 231.322 144.811 229.896 149.42 228.217V227.162C149.42 224.486 148.99 222.65 148.131 221.654C147.291 220.658 146.061 220.16 144.439 220.16C143.209 220.16 142.232 220.492 141.51 221.156C140.768 221.82 140.396 222.582 140.396 223.441L140.455 225.141C140.455 226.039 140.221 226.732 139.752 227.221C139.303 227.709 138.707 227.953 137.965 227.953C137.242 227.953 136.646 227.699 136.178 227.191C135.729 226.684 135.504 225.99 135.504 225.111C135.504 223.432 136.363 221.889 138.082 220.482C139.801 219.076 142.213 218.373 145.318 218.373C147.701 218.373 149.654 218.773 151.178 219.574C152.33 220.18 153.18 221.127 153.727 222.416C154.078 223.256 154.254 224.975 154.254 227.572V236.684C154.254 239.242 154.303 240.814 154.4 241.4C154.498 241.967 154.654 242.348 154.869 242.543C155.104 242.738 155.367 242.836 155.66 242.836C155.973 242.836 156.246 242.768 156.48 242.631C156.891 242.377 157.682 241.664 158.854 240.492V242.133C156.666 245.062 154.576 246.527 152.584 246.527C151.627 246.527 150.865 246.195 150.299 245.531C149.732 244.867 149.439 243.734 149.42 242.133ZM149.42 240.229V230.004C146.471 231.176 144.566 232.006 143.707 232.494C142.164 233.354 141.061 234.252 140.396 235.189C139.732 236.127 139.4 237.152 139.4 238.266C139.4 239.672 139.82 240.844 140.66 241.781C141.5 242.699 142.467 243.158 143.561 243.158C145.045 243.158 146.998 242.182 149.42 240.229ZM184.4 219.164V235.424C184.4 238.529 184.469 240.434 184.605 241.137C184.762 241.82 184.996 242.299 185.309 242.572C185.641 242.846 186.021 242.982 186.451 242.982C187.057 242.982 187.74 242.816 188.502 242.484L188.912 243.51L180.885 246.82H179.566V241.137C177.262 243.637 175.504 245.209 174.293 245.854C173.082 246.498 171.803 246.82 170.455 246.82C168.951 246.82 167.643 246.391 166.529 245.531C165.436 244.652 164.674 243.529 164.244 242.162C163.814 240.795 163.6 238.861 163.6 236.361V224.379C163.6 223.109 163.463 222.23 163.189 221.742C162.916 221.254 162.506 220.883 161.959 220.629C161.432 220.355 160.465 220.229 159.059 220.248V219.164H168.463V237.123C168.463 239.623 168.893 241.264 169.752 242.045C170.631 242.826 171.686 243.217 172.916 243.217C173.756 243.217 174.703 242.953 175.758 242.426C176.832 241.898 178.102 240.893 179.566 239.408V224.203C179.566 222.68 179.283 221.654 178.717 221.127C178.17 220.58 177.018 220.287 175.26 220.248V219.164H184.4ZM208.219 218.373V227.514H207.252C206.51 224.643 205.553 222.689 204.381 221.654C203.229 220.619 201.754 220.102 199.957 220.102C198.59 220.102 197.486 220.463 196.646 221.186C195.807 221.908 195.387 222.709 195.387 223.588C195.387 224.682 195.699 225.619 196.324 226.4C196.93 227.201 198.16 228.051 200.016 228.949L204.293 231.029C208.258 232.963 210.24 235.512 210.24 238.676C210.24 241.117 209.312 243.09 207.457 244.594C205.621 246.078 203.561 246.82 201.275 246.82C199.635 246.82 197.76 246.527 195.65 245.941C195.006 245.746 194.479 245.648 194.068 245.648C193.619 245.648 193.268 245.902 193.014 246.41H192.047V236.83H193.014C193.561 239.564 194.605 241.625 196.148 243.012C197.691 244.398 199.42 245.092 201.334 245.092C202.682 245.092 203.775 244.701 204.615 243.92C205.475 243.119 205.904 242.162 205.904 241.049C205.904 239.701 205.426 238.568 204.469 237.65C203.531 236.732 201.646 235.57 198.814 234.164C195.982 232.758 194.127 231.488 193.248 230.355C192.369 229.242 191.93 227.836 191.93 226.137C191.93 223.93 192.682 222.084 194.186 220.6C195.709 219.115 197.672 218.373 200.074 218.373C201.129 218.373 202.408 218.598 203.912 219.047C204.908 219.34 205.572 219.486 205.904 219.486C206.217 219.486 206.461 219.418 206.637 219.281C206.812 219.145 207.018 218.842 207.252 218.373H208.219ZM218.766 229.271C218.746 233.256 219.713 236.381 221.666 238.646C223.619 240.912 225.914 242.045 228.551 242.045C230.309 242.045 231.832 241.566 233.121 240.609C234.43 239.633 235.523 237.973 236.402 235.629L237.311 236.215C236.9 238.891 235.709 241.332 233.736 243.539C231.764 245.727 229.293 246.82 226.324 246.82C223.102 246.82 220.338 245.57 218.033 243.07C215.748 240.551 214.605 237.172 214.605 232.934C214.605 228.344 215.777 224.77 218.121 222.211C220.484 219.633 223.443 218.344 226.998 218.344C230.006 218.344 232.477 219.34 234.41 221.332C236.344 223.305 237.311 225.951 237.311 229.271H218.766ZM218.766 227.572H231.188C231.09 225.854 230.885 224.643 230.572 223.939C230.084 222.846 229.352 221.986 228.375 221.361C227.418 220.736 226.412 220.424 225.357 220.424C223.736 220.424 222.281 221.059 220.992 222.328C219.723 223.578 218.98 225.326 218.766 227.572ZM309.088 206.273V207.357C308.053 207.357 307.213 207.543 306.568 207.914C305.924 208.285 305.309 208.979 304.723 209.994C304.332 210.678 303.717 212.309 302.877 214.887L291.803 246.908H290.631L281.578 221.508L272.584 246.908H271.529L259.723 213.92C258.844 211.459 258.287 210.004 258.053 209.555C257.662 208.812 257.125 208.266 256.441 207.914C255.777 207.543 254.869 207.357 253.717 207.357V206.273H268.424V207.357H267.721C266.686 207.357 265.895 207.592 265.348 208.061C264.801 208.529 264.527 209.096 264.527 209.76C264.527 210.443 264.957 212.016 265.816 214.477L273.639 236.771L280.23 217.816L279.059 214.477L278.121 211.811C277.711 210.834 277.252 209.975 276.744 209.232C276.49 208.861 276.178 208.549 275.807 208.295C275.318 207.943 274.83 207.689 274.342 207.533C273.971 207.416 273.385 207.357 272.584 207.357V206.273H288.053V207.357H286.998C285.904 207.357 285.104 207.592 284.596 208.061C284.088 208.529 283.834 209.164 283.834 209.965C283.834 210.961 284.273 212.699 285.152 215.18L292.77 236.771L300.328 214.887C301.188 212.465 301.617 210.785 301.617 209.848C301.617 209.398 301.471 208.979 301.178 208.588C300.904 208.197 300.553 207.924 300.123 207.768C299.381 207.494 298.414 207.357 297.223 207.357V206.273H309.088ZM311.168 229.271C311.148 233.256 312.115 236.381 314.068 238.646C316.021 240.912 318.316 242.045 320.953 242.045C322.711 242.045 324.234 241.566 325.523 240.609C326.832 239.633 327.926 237.973 328.805 235.629L329.713 236.215C329.303 238.891 328.111 241.332 326.139 243.539C324.166 245.727 321.695 246.82 318.727 246.82C315.504 246.82 312.74 245.57 310.436 243.07C308.15 240.551 307.008 237.172 307.008 232.934C307.008 228.344 308.18 224.77 310.523 222.211C312.887 219.633 315.846 218.344 319.4 218.344C322.408 218.344 324.879 219.34 326.812 221.332C328.746 223.305 329.713 225.951 329.713 229.271H311.168ZM311.168 227.572H323.59C323.492 225.854 323.287 224.643 322.975 223.939C322.486 222.846 321.754 221.986 320.777 221.361C319.82 220.736 318.814 220.424 317.76 220.424C316.139 220.424 314.684 221.059 313.395 222.328C312.125 223.578 311.383 225.326 311.168 227.572ZM382.564 205.365L383.473 218.871H382.564C381.354 214.828 379.625 211.918 377.379 210.141C375.133 208.363 372.438 207.475 369.293 207.475C366.656 207.475 364.273 208.148 362.145 209.496C360.016 210.824 358.336 212.953 357.105 215.883C355.895 218.812 355.289 222.455 355.289 226.811C355.289 230.404 355.865 233.52 357.018 236.156C358.17 238.793 359.898 240.814 362.203 242.221C364.527 243.627 367.174 244.33 370.143 244.33C372.721 244.33 374.996 243.783 376.969 242.689C378.941 241.576 381.109 239.379 383.473 236.098L384.381 236.684C382.389 240.219 380.064 242.807 377.408 244.447C374.752 246.088 371.598 246.908 367.945 246.908C361.363 246.908 356.266 244.467 352.652 239.584C349.957 235.951 348.609 231.674 348.609 226.752C348.609 222.787 349.498 219.145 351.275 215.824C353.053 212.504 355.494 209.936 358.6 208.119C361.725 206.283 365.133 205.365 368.824 205.365C371.695 205.365 374.527 206.068 377.32 207.475C378.141 207.904 378.727 208.119 379.078 208.119C379.605 208.119 380.064 207.934 380.455 207.562C380.963 207.035 381.324 206.303 381.539 205.365H382.564ZM403.541 242.133C400.787 244.262 399.059 245.492 398.355 245.824C397.301 246.312 396.178 246.557 394.986 246.557C393.131 246.557 391.598 245.922 390.387 244.652C389.195 243.383 388.6 241.713 388.6 239.643C388.6 238.334 388.893 237.201 389.479 236.244C390.279 234.916 391.666 233.666 393.639 232.494C395.631 231.322 398.932 229.896 403.541 228.217V227.162C403.541 224.486 403.111 222.65 402.252 221.654C401.412 220.658 400.182 220.16 398.561 220.16C397.33 220.16 396.354 220.492 395.631 221.156C394.889 221.82 394.518 222.582 394.518 223.441L394.576 225.141C394.576 226.039 394.342 226.732 393.873 227.221C393.424 227.709 392.828 227.953 392.086 227.953C391.363 227.953 390.768 227.699 390.299 227.191C389.85 226.684 389.625 225.99 389.625 225.111C389.625 223.432 390.484 221.889 392.203 220.482C393.922 219.076 396.334 218.373 399.439 218.373C401.822 218.373 403.775 218.773 405.299 219.574C406.451 220.18 407.301 221.127 407.848 222.416C408.199 223.256 408.375 224.975 408.375 227.572V236.684C408.375 239.242 408.424 240.814 408.521 241.4C408.619 241.967 408.775 242.348 408.99 242.543C409.225 242.738 409.488 242.836 409.781 242.836C410.094 242.836 410.367 242.768 410.602 242.631C411.012 242.377 411.803 241.664 412.975 240.492V242.133C410.787 245.062 408.697 246.527 406.705 246.527C405.748 246.527 404.986 246.195 404.42 245.531C403.854 244.867 403.561 243.734 403.541 242.133ZM403.541 240.229V230.004C400.592 231.176 398.688 232.006 397.828 232.494C396.285 233.354 395.182 234.252 394.518 235.189C393.854 236.127 393.521 237.152 393.521 238.266C393.521 239.672 393.941 240.844 394.781 241.781C395.621 242.699 396.588 243.158 397.682 243.158C399.166 243.158 401.119 242.182 403.541 240.229ZM422.848 218.373V224.408C425.094 220.385 427.398 218.373 429.762 218.373C430.836 218.373 431.725 218.705 432.428 219.369C433.131 220.014 433.482 220.766 433.482 221.625C433.482 222.387 433.229 223.031 432.721 223.559C432.213 224.086 431.607 224.35 430.904 224.35C430.221 224.35 429.449 224.018 428.59 223.354C427.75 222.67 427.125 222.328 426.715 222.328C426.363 222.328 425.982 222.523 425.572 222.914C424.693 223.715 423.785 225.033 422.848 226.869V239.73C422.848 241.215 423.033 242.338 423.404 243.1C423.658 243.627 424.107 244.066 424.752 244.418C425.396 244.77 426.324 244.945 427.535 244.945V246H413.795V244.945C415.162 244.945 416.178 244.73 416.842 244.301C417.33 243.988 417.672 243.49 417.867 242.807C417.965 242.475 418.014 241.527 418.014 239.965V229.564C418.014 226.439 417.945 224.584 417.809 223.998C417.691 223.393 417.457 222.953 417.105 222.68C416.773 222.406 416.354 222.27 415.846 222.27C415.24 222.27 414.557 222.416 413.795 222.709L413.502 221.654L421.617 218.373H422.848ZM439.488 229.271C439.469 233.256 440.436 236.381 442.389 238.646C444.342 240.912 446.637 242.045 449.273 242.045C451.031 242.045 452.555 241.566 453.844 240.609C455.152 239.633 456.246 237.973 457.125 235.629L458.033 236.215C457.623 238.891 456.432 241.332 454.459 243.539C452.486 245.727 450.016 246.82 447.047 246.82C443.824 246.82 441.061 245.57 438.756 243.07C436.471 240.551 435.328 237.172 435.328 232.934C435.328 228.344 436.5 224.77 438.844 222.211C441.207 219.633 444.166 218.344 447.721 218.344C450.729 218.344 453.199 219.34 455.133 221.332C457.066 223.305 458.033 225.951 458.033 229.271H439.488ZM439.488 227.572H451.91C451.812 225.854 451.607 224.643 451.295 223.939C450.807 222.846 450.074 221.986 449.098 221.361C448.141 220.736 447.135 220.424 446.08 220.424C444.459 220.424 443.004 221.059 441.715 222.328C440.445 223.578 439.703 225.326 439.488 227.572Z" fill="white"/>
</svg>
